<?xml version='1.0' encoding='iso-8859-1'?>
<svg version="1.1" xmlns="http://www.w3.org/2000/svg" viewBox="0 0 137.144 137.144" xmlns:xlink="http://www.w3.org/1999/xlink" enable-background="new 0 0 137.144 137.144">
  <g>
    <g>
      <path d="m107.382,35.507c-3.367,2.02-6.921,3.419-10.667,4.201-3.429-3.646-7.557-5.471-12.382-5.471-4.699,0-8.765,1.617-11.952,5.08-1.342,1.458-3.809,3.931-3.809,8.684 0,1.562-0.254,5.75 0,6.857-6.921-0.39-14.361-0.989-20.096-4.551-10.5-6.522-11.866-10.96-14.19-16.02-4.012,6.608-5.107,18.014 4.047,26.227-2.881,1.865-8.492-0.645-10.905-2.012-0.214,7.315 13.445,16.376 16.81,17.055-2.138,0.559-6.401,0.336-10.19-0.564 1.079,3.453 5.634,7.158 8.524,9.405 2.888,2.246 6.143,3.404 9.762,3.468-6.667,5.47-13.652,8.205-20.953,8.205-1.333,0-2.667-0.097-4-0.293 7.11,4.689 15.746,7.033 25.905,7.033 6.031,0 11.667-0.977 16.905-2.93 5.238-1.954 9.729-4.558 13.476-7.815 3.746-3.255 6.968-7.017 9.667-11.283 2.698-4.264 4.698-8.709 6-13.333 1.301-4.623 1.953-9.246 1.953-13.871v-2.247c3.3-2.474 6.096-5.469 8.381-8.987-3.238,1.433-6.476,2.345-9.714,2.736 3.681-2.215 6.157-5.406 7.428-9.574zm2.333-35.507h-82.286c-15.149,0-27.429,12.28-27.429,27.429v82.287c0,15.148 12.28,27.429 27.429,27.429h82.286c15.149,0 27.429-12.28 27.429-27.429v-82.287c0-15.149-12.28-27.429-27.429-27.429zm13.715,102.858c0,11.361-9.21,20.572-20.572,20.572h-68.572c-11.361,0-20.572-9.211-20.572-20.572v-68.572c0-11.362 9.21-20.572 20.572-20.572h68.572c11.361,0 20.572,9.21 20.572,20.572v68.572z"/>
    </g>
  </g>
</svg>
